<?xml version="1.0" standalone="no"?>
<svg viewBox="0 0 1024 768" version="1.1" xmlns="http://www.w3.org/2000/svg" xmlns:xlink="http://www.w3.org/1999/xlink" stroke-linecap="round" stroke-linejoin="round" fill-rule="evenodd" xml:space="preserve" >
<defs >
<clipPath id="clipId0" >
<path d="M0,768 1024,768 1024,0 0,0 z" />
</clipPath>
</defs>
<g clip-path="url(#clipId0)" fill="none" stroke="rgb(0,0,0)" stroke-width="0.1" />
<g clip-path="url(#clipId0)" fill="none" stroke="rgb(0,0,0)" stroke-width="0.0278273" >
<polyline points="556.933,389.462 827.945,389.462 " />
<polyline points="827.945,399.539 827.945,377.625 " />
<polyline points="203.567,378.23 355.168,378.23 " />
<polyline points="362.347,428.461 362.523,428.638 " />
<polyline points="340.21,428.461 348.854,437.105 " />
<polyline points="359.922,448.173 362.425,450.677 " />
<polyline points="318.074,428.461 326.717,437.105 " />
<polyline points="337.786,448.173 348.854,459.242 " />
<polyline points="359.922,470.31 362.328,472.716 " />
<polyline points="271.376,448.173 282.444,459.242 " />
<polyline points="273.801,428.461 282.444,437.105 " />
<polyline points="293.513,448.173 304.581,459.242 " />
<polyline points="315.649,470.31 326.717,481.378 " />
<polyline points="337.786,492.446 348.854,503.515 " />
<polyline points="295.937,428.461 304.581,437.105 " />
<polyline points="315.649,448.173 326.717,459.242 " />
<polyline points="337.786,470.31 348.854,481.378 " />
<polyline points="359.922,492.446 362.23,494.755 " />
<polyline points="355.772,430.188 362.486,436.902 " />
<polyline points="333.635,430.188 344.703,441.256 " />
<polyline points="355.772,452.324 362.389,458.941 " />
<polyline points="311.499,430.188 322.567,441.256 " />
<polyline points="333.635,452.324 344.703,463.392 " />
<polyline points="355.772,474.461 362.291,480.98 " />
<polyline points="267.226,430.188 278.294,441.256 " />
<polyline points="289.362,452.324 300.43,463.392 " />
<polyline points="311.499,474.461 322.567,485.529 " />
<polyline points="333.635,603.875 334.115,604.354 " />
<polyline points="289.362,430.188 300.43,441.256 " />
<polyline points="311.499,452.324 322.567,463.392 " />
<polyline points="333.635,474.461 344.703,485.529 " />
<polyline points="351.621,434.338 362.45,445.167 " />
<polyline points="329.485,434.338 340.553,445.406 " />
<polyline points="351.621,456.475 362.352,467.206 " />
<polyline points="263.075,434.338 274.143,445.406 " />
<polyline points="285.212,456.475 296.28,467.543 " />
<polyline points="285.212,434.338 296.28,445.406 " />
<polyline points="307.348,456.475 318.416,467.543 " />
<polyline points="329.485,478.611 340.553,489.679 " />
<polyline points="307.348,434.338 318.416,445.406 " />
<polyline points="329.485,456.475 340.553,467.543 " />
<polyline points="351.621,478.611 362.255,489.245 " />
<polyline points="340.553,492.446 351.621,481.378 " />
<polyline points="340.553,470.31 351.621,459.242 " />
<polyline points="322.185,488.678 329.485,481.378 " />
<polyline points="340.553,448.173 351.621,437.105 " />
<polyline points="318.416,470.31 329.485,459.242 " />
<polyline points="318.416,448.173 329.485,437.105 " />
<polyline points="296.28,470.31 307.348,459.242 " />
<polyline points="296.28,448.173 307.348,437.105 " />
<polyline points="283.211,461.242 285.212,459.242 " />
<polyline points="274.143,448.173 285.212,437.105 " />
<polyline points="257.229,442.951 263.075,437.105 " />
<polyline points="344.703,496.597 355.772,485.529 " />
<polyline points="344.703,474.461 355.772,463.392 " />
<polyline points="327.056,492.108 333.635,485.529 " />
<polyline points="344.703,452.324 355.772,441.256 " />
<polyline points="322.567,474.461 333.635,463.392 " />
<polyline points="344.703,430.188 346.43,428.461 " />
<polyline points="322.567,452.324 333.635,441.256 " />
<polyline points="301.074,473.817 311.499,463.392 " />
<polyline points="322.567,430.188 324.293,428.461 " />
<polyline points="300.43,452.324 311.499,441.256 " />
<polyline points="288.083,464.671 289.362,463.392 " />
<polyline points="300.43,430.188 302.157,428.461 " />
<polyline points="278.294,452.324 289.362,441.256 " />
<polyline points="217.386,416.554 217.758,416.182 " />
<polyline points="237.796,418.28 239.522,416.554 " />
<polyline points="278.294,430.188 280.02,428.461 " />
<polyline points="262.101,446.38 267.226,441.256 " />
<polyline points="348.854,500.748 359.922,489.679 " />
<polyline points="348.854,478.611 359.922,467.543 " />
<polyline points="331.928,495.537 337.786,489.679 " />
<polyline points="348.854,456.475 359.922,445.406 " />
<polyline points="326.717,478.611 337.786,467.543 " />
<polyline points="348.854,434.338 354.731,428.461 " />
<polyline points="326.717,456.475 337.786,445.406 " />
<polyline points="305.946,477.246 315.649,467.543 " />
<polyline points="326.717,434.338 332.594,428.461 " />
<polyline points="304.581,456.475 315.649,445.406 " />
<polyline points="292.955,468.101 293.513,467.543 " />
<polyline points="304.581,434.338 310.458,428.461 " />
<polyline points="282.444,456.475 293.513,445.406 " />
<polyline points="282.444,434.338 288.321,428.461 " />
<polyline points="266.973,449.81 271.376,445.406 " />
<polyline points="260.308,434.338 266.185,428.461 " />
<polyline points="692.848,399.567 696.342,403.061 " />
<polyline points="670.712,399.567 674.206,403.061 " />
<polyline points="685.274,414.13 693.585,422.441 " />
<polyline points="648.575,399.567 652.069,403.061 " />
<polyline points="663.138,414.13 674.206,425.198 " />
<polyline points="626.438,399.567 629.933,403.061 " />
<polyline points="641.001,414.13 652.069,425.198 " />
<polyline points="574.592,458.403 577.727,461.538 " />
<polyline points="574.592,436.266 585.66,447.334 " />
<polyline points="574.592,414.13 585.66,425.198 " />
<polyline points="596.728,436.266 607.796,447.334 " />
<polyline points="582.165,399.567 585.66,403.061 " />
<polyline points="596.728,414.13 607.796,425.198 " />
<polyline points="618.865,436.266 627.381,444.782 " />
<polyline points="604.302,399.567 607.796,403.061 " />
<polyline points="618.865,414.13 629.933,425.198 " />
<polyline points="641.001,436.266 643.932,439.197 " />
<polyline points="684.547,399.567 692.192,407.212 " />
<polyline points="703.26,418.28 703.93,418.95 " />
<polyline points="662.41,399.567 670.055,407.212 " />
<polyline points="681.123,418.28 687.378,424.535 " />
<polyline points="640.274,399.567 647.919,407.212 " />
<polyline points="658.987,418.28 670.055,429.348 " />
<polyline points="618.137,399.567 625.782,407.212 " />
<polyline points="636.85,418.28 647.919,429.348 " />
<polyline points="570.441,462.553 571.521,463.633 " />
<polyline points="570.441,440.417 581.509,451.485 " />
<polyline points="570.441,418.28 581.509,429.348 " />
<polyline points="592.577,440.417 603.646,451.485 " />
<polyline points="573.864,399.567 581.509,407.212 " />
<polyline points="592.577,418.28 603.646,429.348 " />
<polyline points="614.714,440.417 621.174,446.877 " />
<polyline points="596.001,399.567 603.646,407.212 " />
<polyline points="614.714,418.28 625.782,429.348 " />
<polyline points="636.85,440.417 637.725,441.291 " />
<polyline points="699.109,400.294 710.178,411.362 " />
<polyline points="676.973,400.294 688.041,411.362 " />
<polyline points="654.836,400.294 665.905,411.362 " />
<polyline points="676.973,422.431 681.172,426.63 " />
<polyline points="632.7,400.294 643.768,411.362 " />
<polyline points="654.836,422.431 664.621,432.215 " />
<polyline points="566.29,444.567 577.359,455.635 " />
<polyline points="566.29,422.431 577.359,433.499 " />
<polyline points="588.427,422.431 599.495,433.499 " />
<polyline points="610.563,444.567 614.967,448.971 " />
<polyline points="588.427,400.294 599.495,411.362 " />
<polyline points="610.563,422.431 621.632,433.499 " />
<polyline points="610.563,400.294 621.632,411.362 " />
<polyline points="632.7,422.431 643.768,433.499 " />
<polyline points="688.041,414.13 699.109,403.061 " />
<polyline points="672.673,429.498 676.973,425.198 " />
<polyline points="577.359,414.13 588.427,403.061 " />
<polyline points="565.658,425.83 566.29,425.198 " />
<polyline points="599.495,414.13 610.563,403.061 " />
<polyline points="577.359,436.266 588.427,425.198 " />
<polyline points="565.875,447.749 566.29,447.334 " />
<polyline points="621.632,414.13 632.7,403.061 " />
<polyline points="599.495,436.266 610.563,425.198 " />
<polyline points="577.359,458.403 588.427,447.334 " />
<polyline points="566.092,469.669 566.29,469.471 " />
<polyline points="643.768,414.13 654.836,403.061 " />
<polyline points="621.632,436.266 632.7,425.198 " />
<polyline points="605.85,452.048 610.563,447.334 " />
<polyline points="665.905,414.13 676.973,403.061 " />
<polyline points="643.768,436.266 654.836,425.198 " />
<polyline points="692.192,418.28 703.26,407.212 " />
<polyline points="565.523,412.13 570.441,407.212 " />
<polyline points="581.509,418.28 592.577,407.212 " />
<polyline points="565.74,434.05 570.441,429.348 " />
<polyline points="603.646,418.28 614.714,407.212 " />
<polyline points="581.509,440.417 592.577,429.348 " />
<polyline points="565.957,455.969 570.441,451.485 " />
<polyline points="625.782,418.28 636.85,407.212 " />
<polyline points="603.646,440.417 614.714,429.348 " />
<polyline points="581.509,462.553 592.577,451.485 " />
<polyline points="647.919,418.28 658.987,407.212 " />
<polyline points="625.782,440.417 636.85,429.348 " />
<polyline points="670.055,418.28 681.123,407.212 " />
<polyline points="651.791,436.545 658.987,429.348 " />
<polyline points="697.732,421.041 707.411,411.362 " />
<polyline points="585.66,400.294 586.387,399.567 " />
<polyline points="565.604,420.35 574.592,411.362 " />
<polyline points="607.796,400.294 608.524,399.567 " />
<polyline points="585.66,422.431 596.728,411.362 " />
<polyline points="565.821,442.269 574.592,433.499 " />
<polyline points="629.933,400.294 630.66,399.567 " />
<polyline points="607.796,422.431 618.865,411.362 " />
<polyline points="585.66,444.567 596.728,433.499 " />
<polyline points="564.085,466.142 574.592,455.635 " />
<polyline points="652.069,400.294 652.797,399.567 " />
<polyline points="629.933,422.431 641.001,411.362 " />
<polyline points="607.796,444.567 618.865,433.499 " />
<polyline points="674.206,400.294 674.933,399.567 " />
<polyline points="652.069,422.431 663.138,411.362 " />
<polyline points="630.908,443.592 641.001,433.499 " />
<polyline points="696.342,400.294 697.07,399.567 " />
<polyline points="674.206,422.431 685.274,411.362 " />
<polyline points="556.933,399.539 556.933,377.625 " />
<polyline points="556.933,399.539 827.945,399.539 " />
<polyline points="363.606,377.625 828.023,377.625 " />
<polyline points="203.567,428.73 363.639,428.73 " />
<polyline points="363.639,629.382 363.639,377.625 " />
<polyline points="365.222,629.382 565.579,629.382 " />
<polyline points="565.579,629.382 565.579,399.539 " />
<polyline points="218.669,629.587 218.669,378.23 " />
<polyline points="203.567,629.587 356.268,629.587 " />
<polyline points="362.981,760.471 362.981,639.655 " />
<polyline points="362.981,752.081 564.345,752.081 " />
<polyline points="564.345,760.471 564.345,634.621 " />
<polyline points="655.46,323.332 683.647,323.332 " />
<polyline points="654.954,323.332 670.849,381.563 " />
</g>
<g clip-path="url(#clipId0)" fill="rgb(0,0,0)" stroke="rgb(0,0,0)" stroke-width="0.25" >
<path d="M671.789,381.307 672.388,387.201 669.909,381.82 669.909,381.82 z" />
</g>
<g clip-path="url(#clipId0)" fill="none" stroke="rgb(0,0,0)" stroke-width="0.0278273" >
<polyline points="423.465,22.664 463.589,22.664 " />
<polyline points="419.356,39.6743 423.004,22.664 " />
<polyline points="410.141,7.53516 419.356,39.6743 " />
<polyline points="406.493,23.5855 410.141,7.53516 " />
<polyline points="363.606,377.625 363.606,22.664 " />
<polyline points="463.589,377.625 463.589,22.664 " />
<polyline points="363.606,22.664 406.702,22.664 " />
</g>
<g clip-path="url(#clipId0)" fill="rgb(0,0,0)" stroke="rgb(0,0,0)" stroke-width="0.25" >
<polygon points="380.05,343.089 380.195,343.91 381.372,343.482 381.303,343.089 " />
<polygon points="380.195,343.91 380.612,344.632 381.571,343.827 381.372,343.482 " />
<polygon points="380.612,344.632 381.25,345.168 381.876,344.083 381.571,343.827 " />
<polygon points="381.25,345.168 382.034,345.453 382.251,344.219 381.876,344.083 " />
<polygon points="382.034,345.453 382.867,345.453 382.65,344.219 382.251,344.219 " />
<polygon points="382.867,345.453 383.65,345.168 383.024,344.083 382.65,344.219 " />
<polygon points="383.65,345.168 384.289,344.632 383.33,343.827 383.024,344.083 " />
<polygon points="384.289,344.632 384.706,343.91 383.529,343.482 383.33,343.827 " />
<polygon points="384.706,343.91 384.85,343.089 383.598,343.089 383.529,343.482 " />
<polygon points="384.85,343.089 384.706,342.268 383.529,342.696 383.598,343.089 " />
<polygon points="384.706,342.268 384.289,341.546 383.33,342.351 383.529,342.696 " />
<polygon points="384.289,341.546 383.65,341.01 383.024,342.095 383.33,342.351 " />
<polygon points="383.65,341.01 382.867,340.725 382.65,341.959 383.024,342.095 " />
<polygon points="382.867,340.725 382.034,340.725 382.251,341.959 382.65,341.959 " />
<polygon points="382.034,340.725 381.25,341.01 381.876,342.095 382.251,341.959 " />
<polygon points="381.25,341.01 380.612,341.546 381.571,342.351 381.876,342.095 " />
<polygon points="380.612,341.546 380.195,342.268 381.372,342.696 381.571,342.351 " />
<polygon points="380.195,342.268 380.05,343.089 381.303,343.089 381.372,342.696 " />
<polygon points="442.432,343.089 442.577,343.91 443.754,343.482 443.685,343.089 " />
<polygon points="442.577,343.91 442.994,344.632 443.953,343.827 443.754,343.482 " />
<polygon points="442.994,344.632 443.632,345.168 444.259,344.083 443.953,343.827 " />
<polygon points="443.632,345.168 444.416,345.453 444.633,344.219 444.259,344.083 " />
<polygon points="444.416,345.453 445.249,345.453 445.032,344.219 444.633,344.219 " />
<polygon points="445.249,345.453 446.033,345.168 445.406,344.083 445.032,344.219 " />
<polygon points="446.033,345.168 446.671,344.632 445.712,343.827 445.406,344.083 " />
<polygon points="446.671,344.632 447.088,343.91 445.911,343.482 445.712,343.827 " />
<polygon points="447.088,343.91 447.233,343.089 445.98,343.089 445.911,343.482 " />
<polygon points="447.233,343.089 447.088,342.268 445.911,342.696 445.98,343.089 " />
<polygon points="447.088,342.268 446.671,341.546 445.712,342.351 445.911,342.696 " />
<polygon points="446.671,341.546 446.033,341.01 445.406,342.095 445.712,342.351 " />
<polygon points="446.033,341.01 445.249,340.725 445.032,341.959 445.406,342.095 " />
<polygon points="445.249,340.725 444.416,340.725 444.633,341.959 445.032,341.959 " />
<polygon points="444.416,340.725 443.632,341.01 444.259,342.095 444.633,341.959 " />
<polygon points="443.632,341.01 442.994,341.546 443.953,342.351 444.259,342.095 " />
<polygon points="442.994,341.546 442.577,342.268 443.754,342.696 443.953,342.351 " />
<polygon points="442.577,342.268 442.432,343.089 443.685,343.089 443.754,342.696 " />
</g>
<g clip-path="url(#clipId0)" fill="none" stroke="rgb(0,0,0)" stroke-width="0.83482" >
<polyline points="297.116,343.035 446.932,343.035 " />
<polyline points="377.934,375.125 377.934,22.664 " />
<polyline points="386.62,601.908 386.62,182.447 " />
</g>
<g clip-path="url(#clipId0)" fill="rgb(0,0,0)" stroke="rgb(0,0,0)" stroke-width="0.25" >
<polygon points="385.955,601.935 386.066,603.339 387.303,603.143 387.207,601.935 " />
<polygon points="386.066,603.339 386.394,604.708 387.585,604.321 387.303,603.143 " />
<polygon points="386.394,604.708 386.933,606.009 388.049,605.44 387.585,604.321 " />
<polygon points="386.933,606.009 387.669,607.21 388.682,606.474 388.049,605.44 " />
<polygon points="387.669,607.21 388.584,608.28 389.469,607.395 388.682,606.474 " />
<polygon points="388.584,608.28 389.655,609.195 390.391,608.182 389.469,607.395 " />
<polygon points="389.655,609.195 390.855,609.931 391.424,608.815 390.391,608.182 " />
<polygon points="390.855,609.931 392.156,610.47 392.543,609.279 391.424,608.815 " />
<polygon points="392.156,610.47 393.526,610.798 393.722,609.562 392.543,609.279 " />
<polygon points="393.526,610.798 394.93,610.909 394.93,609.657 393.722,609.562 " />
<polygon points="390.487,601.463 390.632,602.284 391.809,601.856 391.74,601.463 " />
<polygon points="390.632,602.284 391.049,603.006 392.008,602.201 391.809,601.856 " />
<polygon points="391.049,603.006 391.687,603.542 392.314,602.457 392.008,602.201 " />
<polygon points="391.687,603.542 392.471,603.827 392.688,602.594 392.314,602.457 " />
<polygon points="392.471,603.827 393.304,603.827 393.087,602.594 392.688,602.594 " />
<polygon points="393.304,603.827 394.088,603.542 393.461,602.457 393.087,602.594 " />
<polygon points="394.088,603.542 394.726,603.006 393.767,602.201 393.461,602.457 " />
<polygon points="394.726,603.006 395.143,602.284 393.966,601.856 393.767,602.201 " />
<polygon points="395.143,602.284 395.288,601.463 394.035,601.463 393.966,601.856 " />
<polygon points="395.288,601.463 395.143,600.642 393.966,601.071 394.035,601.463 " />
<polygon points="395.143,600.642 394.726,599.921 393.767,600.725 393.966,601.071 " />
<polygon points="394.726,599.921 394.088,599.385 393.461,600.469 393.767,600.725 " />
<polygon points="394.088,599.385 393.304,599.1 393.087,600.333 393.461,600.469 " />
<polygon points="393.304,599.1 392.471,599.1 392.688,600.333 393.087,600.333 " />
<polygon points="392.471,599.1 391.687,599.385 392.314,600.469 392.688,600.333 " />
<polygon points="391.687,599.385 391.049,599.921 392.008,600.725 392.314,600.469 " />
<polygon points="391.049,599.921 390.632,600.642 391.809,601.071 392.008,600.725 " />
<polygon points="390.632,600.642 390.487,601.463 391.74,601.463 391.809,601.071 " />
<polygon points="431.035,600.921 431.18,601.742 432.356,601.314 432.287,600.921 " />
<polygon points="431.18,601.742 431.597,602.464 432.556,601.659 432.356,601.314 " />
<polygon points="431.597,602.464 432.235,603 432.861,601.915 432.556,601.659 " />
<polygon points="432.235,603 433.018,603.285 433.236,602.052 432.861,601.915 " />
<polygon points="433.018,603.285 433.852,603.285 433.634,602.052 433.236,602.052 " />
<polygon points="433.852,603.285 434.635,603 434.009,601.915 433.634,602.052 " />
<polygon points="434.635,603 435.274,602.464 434.314,601.659 434.009,601.915 " />
<polygon points="435.274,602.464 435.691,601.742 434.514,601.314 434.314,601.659 " />
<polygon points="435.691,601.742 435.835,600.921 434.583,600.921 434.514,601.314 " />
<polygon points="435.835,600.921 435.691,600.1 434.514,600.529 434.583,600.921 " />
<polygon points="435.691,600.1 435.274,599.378 434.314,600.183 434.514,600.529 " />
<polygon points="435.274,599.378 434.635,598.843 434.009,599.927 434.314,600.183 " />
<polygon points="434.635,598.843 433.852,598.558 433.634,599.791 434.009,599.927 " />
<polygon points="433.852,598.558 433.018,598.558 433.236,599.791 433.634,599.791 " />
<polygon points="433.018,598.558 432.235,598.843 432.861,599.927 433.236,599.791 " />
<polygon points="432.235,598.843 431.597,599.378 432.556,600.183 432.861,599.927 " />
<polygon points="431.597,599.378 431.18,600.1 432.356,600.529 432.556,600.183 " />
<polygon points="431.18,600.1 431.035,600.921 432.287,600.921 432.356,600.529 " />
</g>
<g clip-path="url(#clipId0)" fill="none" stroke="rgb(0,0,0)" stroke-width="0.0278273" >
<polyline points="378.743,600.946 608.245,600.946 " />
</g>
<g clip-path="url(#clipId0)" fill="rgb(0,0,0)" stroke="rgb(0,0,0)" stroke-width="0.25" >
<path d="M596.652,606.304 594.37,601.298 598.152,605.293 598.152,605.293 z" />
</g>
<g clip-path="url(#clipId0)" fill="none" stroke="rgb(0,0,0)" stroke-width="0.0278273" >
<polyline points="597.402,605.799 620.032,639.396 " />
<polyline points="620.032,639.396 631.763,639.396 " />
<polyline points="265.709,609.84 386.332,609.84 " />
<polyline points="274.29,682.778 274.29,609.84 " />
<polyline points="461.997,640.268 462.26,640.004 " />
<polyline points="217.774,416.564 218.146,416.192 " />
</g>
<g clip-path="url(#clipId0)" fill="rgb(0,0,0)" stroke="rgb(0,0,0)" stroke-width="0.25" >
<polygon points="401.424,408.202 401.718,408.646 401.749,408.618 401.462,408.185 " />
<polygon points="401.718,408.646 402.136,408.976 402.156,408.939 401.749,408.618 " />
<polygon points="402.136,408.976 402.636,409.159 402.644,409.118 402.156,408.939 " />
<polygon points="402.636,409.159 403.168,409.177 403.163,409.136 402.644,409.118 " />
<polygon points="403.168,409.177 403.679,409.029 403.661,408.991 403.163,409.136 " />
</g>
<g clip-path="url(#clipId0)" fill="none" stroke="rgb(0,0,0)" stroke-width="0.83482" >
<polyline points="449.396,375.125 449.396,22.664 " />
</g>
<g clip-path="url(#clipId0)" fill="rgb(0,0,0)" stroke="rgb(0,0,0)" stroke-width="0.25" >
<polygon points="442.432,209.518 442.577,210.339 443.754,209.91 443.685,209.518 " />
<polygon points="442.577,210.339 442.994,211.061 443.953,210.256 443.754,209.91 " />
<polygon points="442.994,211.061 443.632,211.596 444.259,210.512 443.953,210.256 " />
<polygon points="443.632,211.596 444.416,211.881 444.633,210.648 444.259,210.512 " />
<polygon points="444.416,211.881 445.249,211.881 445.032,210.648 444.633,210.648 " />
<polygon points="445.249,211.881 446.033,211.596 445.406,210.512 445.032,210.648 " />
<polygon points="446.033,211.596 446.671,211.061 445.712,210.256 445.406,210.512 " />
<polygon points="446.671,211.061 447.088,210.339 445.911,209.91 445.712,210.256 " />
<polygon points="447.088,210.339 447.233,209.518 445.98,209.518 445.911,209.91 " />
<polygon points="447.233,209.518 447.088,208.697 445.911,209.125 445.98,209.518 " />
<polygon points="447.088,208.697 446.671,207.975 445.712,208.78 445.911,209.125 " />
<polygon points="446.671,207.975 446.033,207.439 445.406,208.524 445.712,208.78 " />
<polygon points="446.033,207.439 445.249,207.154 445.032,208.387 445.406,208.524 " />
<polygon points="445.249,207.154 444.416,207.154 444.633,208.387 445.032,208.387 " />
<polygon points="444.416,207.154 443.632,207.439 444.259,208.524 444.633,208.387 " />
<polygon points="443.632,207.439 442.994,207.975 443.953,208.78 444.259,208.524 " />
<polygon points="442.994,207.975 442.577,208.697 443.754,209.125 443.953,208.78 " />
<polygon points="442.577,208.697 442.432,209.518 443.685,209.518 443.754,209.125 " />
<polygon points="380.05,209.518 380.195,210.339 381.372,209.91 381.303,209.518 " />
<polygon points="380.195,210.339 380.612,211.061 381.571,210.256 381.372,209.91 " />
<polygon points="380.612,211.061 381.25,211.596 381.876,210.512 381.571,210.256 " />
<polygon points="381.25,211.596 382.034,211.881 382.251,210.648 381.876,210.512 " />
<polygon points="382.034,211.881 382.867,211.881 382.65,210.648 382.251,210.648 " />
<polygon points="382.867,211.881 383.65,211.596 383.024,210.512 382.65,210.648 " />
<polygon points="383.65,211.596 384.289,211.061 383.33,210.256 383.024,210.512 " />
<polygon points="384.289,211.061 384.706,210.339 383.529,209.91 383.33,210.256 " />
<polygon points="384.706,210.339 384.85,209.518 383.598,209.518 383.529,209.91 " />
<polygon points="384.85,209.518 384.706,208.697 383.529,209.125 383.598,209.518 " />
<polygon points="384.706,208.697 384.289,207.975 383.33,208.78 383.529,209.125 " />
<polygon points="384.289,207.975 383.65,207.439 383.024,208.524 383.33,208.78 " />
<polygon points="383.65,207.439 382.867,207.154 382.65,208.387 383.024,208.524 " />
<polygon points="382.867,207.154 382.034,207.154 382.251,208.387 382.65,208.387 " />
<polygon points="382.034,207.154 381.25,207.439 381.876,208.524 382.251,208.387 " />
<polygon points="381.25,207.439 380.612,207.975 381.571,208.78 381.876,208.524 " />
<polygon points="380.612,207.975 380.195,208.697 381.372,209.125 381.571,208.78 " />
<polygon points="380.195,208.697 380.05,209.518 381.303,209.518 381.372,209.125 " />
<polygon points="442.432,75.9465 442.577,76.7674 443.754,76.3391 443.685,75.9465 " />
<polygon points="442.577,76.7674 442.994,77.4893 443.953,76.6844 443.754,76.3391 " />
<polygon points="442.994,77.4893 443.632,78.0251 444.259,76.9406 443.953,76.6844 " />
<polygon points="443.632,78.0251 444.416,78.3102 444.633,77.077 444.259,76.9406 " />
<polygon points="444.416,78.3102 445.249,78.3102 445.032,77.077 444.633,77.077 " />
<polygon points="445.249,78.3102 446.033,78.0251 445.406,76.9406 445.032,77.077 " />
<polygon points="446.033,78.0251 446.671,77.4893 445.712,76.6844 445.406,76.9406 " />
<polygon points="446.671,77.4893 447.088,76.7674 445.911,76.3391 445.712,76.6844 " />
<polygon points="447.088,76.7674 447.233,75.9465 445.98,75.9465 445.911,76.3391 " />
<polygon points="447.233,75.9465 447.088,75.1256 445.911,75.5539 445.98,75.9465 " />
<polygon points="447.088,75.1256 446.671,74.4038 445.712,75.2087 445.911,75.5539 " />
<polygon points="446.671,74.4038 446.033,73.868 445.406,74.9524 445.712,75.2087 " />
<polygon points="446.033,73.868 445.249,73.5829 445.032,74.8161 445.406,74.9524 " />
<polygon points="445.249,73.5829 444.416,73.5829 444.633,74.8161 445.032,74.8161 " />
<polygon points="444.416,73.5829 443.632,73.868 444.259,74.9524 444.633,74.8161 " />
<polygon points="443.632,73.868 442.994,74.4038 443.953,75.2087 444.259,74.9524 " />
<polygon points="442.994,74.4038 442.577,75.1256 443.754,75.5539 443.953,75.2087 " />
<polygon points="442.577,75.1256 442.432,75.9465 443.685,75.9465 443.754,75.5539 " />
<polygon points="380.05,75.9465 380.195,76.7674 381.372,76.3391 381.303,75.9465 " />
<polygon points="380.195,76.7674 380.612,77.4893 381.571,76.6844 381.372,76.3391 " />
<polygon points="380.612,77.4893 381.25,78.0251 381.876,76.9406 381.571,76.6844 " />
<polygon points="381.25,78.0251 382.034,78.3102 382.251,77.077 381.876,76.9406 " />
<polygon points="382.034,78.3102 382.867,78.3102 382.65,77.077 382.251,77.077 " />
<polygon points="382.867,78.3102 383.65,78.0251 383.024,76.9406 382.65,77.077 " />
<polygon points="383.65,78.0251 384.289,77.4893 383.33,76.6844 383.024,76.9406 " />
<polygon points="384.289,77.4893 384.706,76.7674 383.529,76.3391 383.33,76.6844 " />
<polygon points="384.706,76.7674 384.85,75.9465 383.598,75.9465 383.529,76.3391 " />
<polygon points="384.85,75.9465 384.706,75.1256 383.529,75.5539 383.598,75.9465 " />
<polygon points="384.706,75.1256 384.289,74.4038 383.33,75.2087 383.529,75.5539 " />
<polygon points="384.289,74.4038 383.65,73.868 383.024,74.9524 383.33,75.2087 " />
<polygon points="383.65,73.868 382.867,73.5829 382.65,74.8161 383.024,74.9524 " />
<polygon points="382.867,73.5829 382.034,73.5829 382.251,74.8161 382.65,74.8161 " />
<polygon points="382.034,73.5829 381.25,73.868 381.876,74.9524 382.251,74.8161 " />
<polygon points="381.25,73.868 380.612,74.4038 381.571,75.2087 381.876,74.9524 " />
<polygon points="380.612,74.4038 380.195,75.1256 381.372,75.5539 381.571,75.2087 " />
<polygon points="380.195,75.1256 380.05,75.9465 381.303,75.9465 381.372,75.5539 " />
<polygon points="432.216,606.593 433.62,606.482 433.424,605.246 432.216,605.341 " />
<polygon points="433.62,606.482 434.989,606.154 434.602,604.963 433.424,605.246 " />
<polygon points="434.989,606.154 436.29,605.615 435.722,604.499 434.602,604.963 " />
<polygon points="436.29,605.615 437.491,604.879 436.755,603.866 435.722,604.499 " />
<polygon points="437.491,604.879 438.562,603.964 437.676,603.079 436.755,603.866 " />
<polygon points="438.562,603.964 439.476,602.893 438.463,602.157 437.676,603.079 " />
<polygon points="439.476,602.893 440.212,601.693 439.096,601.124 438.463,602.157 " />
<polygon points="440.212,601.693 440.751,600.392 439.56,600.005 439.096,601.124 " />
<polygon points="440.751,600.392 441.08,599.022 439.843,598.826 439.56,600.005 " />
<polygon points="441.08,599.022 441.19,597.619 439.938,597.618 439.843,598.826 " />
</g>
<g clip-path="url(#clipId0)" fill="none" stroke="rgb(0,0,0)" stroke-width="0.83482" >
<polyline points="440.603,597.54 440.603,182.447 " />
<polyline points="378.82,605.985 432.457,605.985 " />
<polyline points="394.976,610.237 540.281,610.237 " />
</g>
<g clip-path="url(#clipId0)" fill="rgb(0,0,0)" stroke="rgb(0,0,0)" stroke-width="0.25" >
<path d="M343.249,341.656 343.95,343.008 342.848,341.957 342.848,341.957 z" />
</g>
<g clip-path="url(#clipId0)" fill="none" stroke="rgb(0,0,0)" stroke-width="0.0278273" >
<polyline points="309.08,296.546 343.048,341.806 " />
<polyline points="307.578,296.546 309.08,296.546 " />
</g>
<g clip-path="url(#clipId0)" fill="rgb(0,0,0)" stroke="rgb(0,0,0)" stroke-width="0.25" >
<path d="M439.036,296.377 440.188,297.374 438.775,296.804 438.775,296.804 z" />
</g>
<g clip-path="url(#clipId0)" fill="none" stroke="rgb(0,0,0)" stroke-width="0.0278273" >
<polyline points="305.768,215.26 438.906,296.59 " />
<polyline points="282.537,215.26 305.768,215.26 " />
</g>
<g clip-path="url(#clipId0)" fill="rgb(0,0,0)" stroke="rgb(0,0,0)" stroke-width="0.25" >
<path d="M382.971,300.229 383.789,301.514 382.598,300.564 382.598,300.564 z" />
</g>
<g clip-path="url(#clipId0)" fill="none" stroke="rgb(0,0,0)" stroke-width="0.0278273" >
<polyline points="306.894,215.947 382.784,300.396 " />
</g>
<g clip-path="url(#clipId0)" fill="rgb(0,0,0)" stroke="rgb(0,0,0)" stroke-width="0.25" >
<path d="M380.871,108.108 379.556,107.338 381.05,107.64 381.05,107.64 z" />
</g>
<g clip-path="url(#clipId0)" fill="none" stroke="rgb(0,0,0)" stroke-width="0.0278273" >
<polyline points="380.96,107.874 513.011,158.263 " />
<polyline points="513.011,158.263 529.894,158.263 " />
</g>
<g clip-path="url(#clipId0)" fill="rgb(0,0,0)" stroke="rgb(0,0,0)" stroke-width="0.25" >
<path d="M450.714,229.394 449.527,230.348 450.341,229.061 450.341,229.061 z" />
</g>
<g clip-path="url(#clipId0)" fill="none" stroke="rgb(0,0,0)" stroke-width="0.0278273" >
<polyline points="450.528,229.227 513.898,158.263 " />
<polyline points="520.923,150.396 522.426,150.396 " />
</g>
<g clip-path="url(#clipId0)" fill="rgb(0,0,0)" stroke="rgb(0,0,0)" stroke-width="0.25" >
<path d="M466.012,277.512 461.763,281.641 464.443,276.357 464.443,276.357 z" />
</g>
<g clip-path="url(#clipId0)" fill="none" stroke="rgb(0,0,0)" stroke-width="0.0278273" >
<polyline points="465.227,276.934 505.742,221.884 " />
<polyline points="505.742,221.884 518.209,222.758 " />
<polyline points="215.538,375.1 221.8,381.361 " />
<polyline points="215.538,425.599 221.8,431.86 " />
<polyline points="215.538,626.456 221.8,632.717 " />
<polyline points="271.159,606.71 277.42,612.971 " />
<polyline points="271.159,626.456 277.42,632.717 " />
<polyline points="359.85,748.95 366.111,755.211 " />
<polyline points="561.215,748.95 567.476,755.211 " />
</g>
<g clip-path="url(#clipId0)" fill="rgb(0,0,0)" stroke="rgb(0,0,0)" stroke-width="0" >
<text transform="matrix(9.66634 0 -0 9.66634 705.857 373.783)" font-family=",'sans-serif'" font-size="1.39636" style="font-family: arial.ttf" >SLAB ON GRADE</text>
<text transform="matrix(9.66634 0 -0 9.66634 252.677 423.122)" font-family=",'sans-serif'" font-size="1.39636" style="font-family: arial.ttf" >FIN. GRADE</text>
<text transform="matrix(9.66634 0 -0 9.66634 723.036 393.59)" font-family=",'sans-serif'" font-size="1.39636" style="font-family: arial.ttf" >X</text>
<text transform="matrix(9.66634 0 -0 9.66634 654.936 393.59)" font-family=",'sans-serif'" font-size="1.39636" style="font-family: arial.ttf" >X</text>
<text transform="matrix(9.66634 0 -0 9.66634 583.534 393.59)" font-family=",'sans-serif'" font-size="1.39636" style="font-family: arial.ttf" >X</text>
<text transform="matrix(9.66634 0 -0 9.66634 442.204 748.471)" font-family=",'sans-serif'" font-size="1.39636" style="font-family: arial.ttf" >24&quot;</text>
<text transform="matrix(5.91893e-016 -9.66634 9.66634 5.91893e-016 208.196 512.173)" font-family=",'sans-serif'" font-size="1.39636" style="font-family: arial.ttf" >24&quot;</text>
<text transform="matrix(5.91893e-016 -9.66634 9.66634 5.91893e-016 212.258 414.182)" font-family=",'sans-serif'" font-size="1.39636" style="font-family: arial.ttf" >6&quot;</text>
<text transform="matrix(9.66634 0 -0 9.66634 220.369 300.049)" font-family=",'sans-serif'" font-size="1.39636" style="font-family: arial.ttf" >2 - #5's</text>
<text transform="matrix(9.66634 0 -0 9.66634 633.715 644.897)" font-family=",'sans-serif'" font-size="1.39636" style="font-family: arial.ttf" >2 - #5's</text>
<text transform="matrix(5.91893e-016 -9.66634 9.66634 5.91893e-016 268.56 682.29)" font-family=",'sans-serif'" font-size="1.39636" style="font-family: arial.ttf" >3&quot; CLR.</text>
<text transform="matrix(9.66634 0 -0 9.66634 532.019 156.114)" font-family=",'sans-serif'" font-size="1.39636" style="font-family: arial.ttf" >VERTICAL</text>
<text transform="matrix(9.66634 0 -0 9.66634 532.019 170.202)" font-family=",'sans-serif'" font-size="1.39636" style="font-family: arial.ttf" >REINFORCEMENT</text>
<text transform="matrix(9.66634 0 -0 9.66634 208.33 210.222)" font-family=",'sans-serif'" font-size="1.39636" style="font-family: arial.ttf" >FOUNDATION</text>
<text transform="matrix(9.66634 0 -0 9.66634 208.33 224.31)" font-family=",'sans-serif'" font-size="1.39636" style="font-family: arial.ttf" >DOWELS</text>
<text transform="matrix(9.66634 0 -0 9.66634 688.204 328.213)" font-family=",'sans-serif'" font-size="1.39636" style="font-family: arial.ttf" >WWF 6X6 - 10/10</text>
<text transform="matrix(9.66634 0 -0 9.66634 521.218 225.351)" font-family=",'sans-serif'" font-size="1.39636" style="font-family: arial.ttf" >10&quot; CONCRTE WALL</text>
</g>
</svg>
