  0
SECTION
  2
ENTITIES
  0
POINT
  8
JOINT
 10
0
 20
8.5
 30
112.002
  0
POINT
  8
JOINT
 10
0
 20
46.5
 30
24
  0
POINT
  8
JOINT
 10
0
 20
46.5
 30
120.43
  0
POINT
  8
JOINT
 10
0
 20
8.5
 30
24
  0
POINT
  8
JOINT
 10
0
 20
53
 30
0
  0
POINT
  8
JOINT
 10
0
 20
53
 30
24
  0
POINT
  8
JOINT
 10
-0.084
 20
53
 30
24
  0
POINT
  8
JOINT
 10
247
 20
8.5
 30
24
  0
POINT
  8
JOINT
 10
247
 20
8.5
 30
112.002
  0
POINT
  8
JOINT
 10
247
 20
46.5
 30
24
  0
POINT
  8
JOINT
 10
247
 20
46.5
 30
120.43
  0
POINT
  8
JOINT
 10
0
 20
0
 30
0
  0
POINT
  8
JOINT
 10
0
 20
53
 30
12
  0
POINT
  8
JOINT
 10
30.938
 20
53
 30
12
  0
POINT
  8
JOINT
 10
30.938
 20
53
 30
24
  0
POINT
  8
JOINT
 10
0
 20
46.5
 30
12
  0
POINT
  8
JOINT
 10
0
 20
46.5
 30
0
  0
POINT
  8
JOINT
 10
0
 20
27.5
 30
0
  0
POINT
  8
JOINT
 10
0
 20
8.5
 30
0
  0
POINT
  8
JOINT
 10
0
 20
27.5
 30
12
  0
POINT
  8
JOINT
 10
0
 20
8.5
 30
12
  0
POINT
  8
JOINT
 10
0
 20
0
 30
12
  0
POINT
  8
JOINT
 10
0
 20
27.5
 30
24
  0
POINT
  8
JOINT
 10
0
 20
0
 30
24
  0
POINT
  8
JOINT
 10
30.938
 20
53
 30
0
  0
POINT
  8
JOINT
 10
154.688
 20
53
 30
0
  0
POINT
  8
JOINT
 10
123.75
 20
53
 30
0
  0
POINT
  8
JOINT
 10
154.688
 20
53
 30
12
  0
POINT
  8
JOINT
 10
123.75
 20
53
 30
12
  0
POINT
  8
JOINT
 10
154.688
 20
53
 30
24
  0
POINT
  8
JOINT
 10
123.75
 20
53
 30
24
  0
POINT
  8
JOINT
 10
92.812
 20
53
 30
0
  0
POINT
  8
JOINT
 10
61.875
 20
53
 30
0
  0
POINT
  8
JOINT
 10
92.812
 20
53
 30
12
  0
POINT
  8
JOINT
 10
61.875
 20
53
 30
12
  0
POINT
  8
JOINT
 10
92.812
 20
53
 30
24
  0
POINT
  8
JOINT
 10
61.875
 20
53
 30
24
  0
POINT
  8
JOINT
 10
216.562
 20
53
 30
0
  0
POINT
  8
JOINT
 10
185.625
 20
53
 30
0
  0
POINT
  8
JOINT
 10
216.562
 20
53
 30
12
  0
POINT
  8
JOINT
 10
185.625
 20
53
 30
12
  0
POINT
  8
JOINT
 10
216.562
 20
53
 30
24
  0
POINT
  8
JOINT
 10
185.625
 20
53
 30
24
  0
POINT
  8
JOINT
 10
247
 20
53
 30
0
  0
POINT
  8
JOINT
 10
247
 20
53
 30
12
  0
POINT
  8
JOINT
 10
247
 20
53
 30
24
  0
POINT
  8
JOINT
 10
247
 20
8.5
 30
12
  0
POINT
  8
JOINT
 10
247
 20
27.5
 30
12
  0
POINT
  8
JOINT
 10
247
 20
27.5
 30
24
  0
POINT
  8
JOINT
 10
247
 20
46.5
 30
12
  0
POINT
  8
JOINT
 10
247
 20
0
 30
24
  0
POINT
  8
JOINT
 10
247
 20
0
 30
12
  0
POINT
  8
JOINT
 10
247
 20
8.5
 30
0
  0
POINT
  8
JOINT
 10
247
 20
0
 30
0
  0
POINT
  8
JOINT
 10
247
 20
27.5
 30
0
  0
POINT
  8
JOINT
 10
247
 20
46.5
 30
0
  0
POINT
  8
JOINT
 10
82.333
 20
-11.57
 30
107.55
  0
POINT
  8
JOINT
 10
82.333
 20
-31.641
 30
103.099
  0
POINT
  8
JOINT
 10
0
 20
-11.57
 30
107.55
  0
POINT
  8
JOINT
 10
0
 20
-31.641
 30
103.099
  0
POINT
  8
JOINT
 10
247
 20
-31.641
 30
103.099
  0
POINT
  8
JOINT
 10
247
 20
-11.57
 30
107.55
  0
POINT
  8
JOINT
 10
164.667
 20
-11.57
 30
107.55
  0
POINT
  8
JOINT
 10
164.667
 20
-31.641
 30
103.099
  0
POINT
  8
JOINT
 10
82.333
 20
-71.992
 30
94.149
  0
POINT
  8
JOINT
 10
0
 20
-71.992
 30
94.149
  0
POINT
  8
JOINT
 10
164.667
 20
-71.992
 30
94.149
  0
POINT
  8
JOINT
 10
247
 20
-71.992
 30
94.149
  0
POINT
  8
JOINT
 10
247
 20
49.061
 30
120.998
  0
POINT
  8
JOINT
 10
164.667
 20
49.061
 30
120.998
  0
POINT
  8
JOINT
 10
164.667
 20
8.5
 30
112.002
  0
POINT
  8
JOINT
 10
82.333
 20
49.061
 30
120.998
  0
POINT
  8
JOINT
 10
82.333
 20
8.5
 30
112.002
  0
POINT
  8
JOINT
 10
0
 20
49.061
 30
120.998
  0
POINT
  8
JOINT
 10
216.562
 20
46.5
 30
0
  0
POINT
  8
JOINT
 10
216.562
 20
8.5
 30
0
  0
POINT
  8
JOINT
 10
216.562
 20
0
 30
0
  0
POINT
  8
JOINT
 10
216.562
 20
27.5
 30
0
  0
POINT
  8
JOINT
 10
30.938
 20
0
 30
0
  0
POINT
  8
JOINT
 10
30.938
 20
8.5
 30
0
  0
POINT
  8
JOINT
 10
30.938
 20
27.5
 30
0
  0
POINT
  8
JOINT
 10
30.938
 20
46.5
 30
0
  0
POINT
  8
JOINT
 10
61.875
 20
8.5
 30
0
  0
POINT
  8
JOINT
 10
61.875
 20
27.5
 30
0
  0
POINT
  8
JOINT
 10
61.875
 20
0
 30
0
  0
POINT
  8
JOINT
 10
61.875
 20
46.5
 30
0
  0
POINT
  8
JOINT
 10
92.812
 20
0
 30
0
  0
POINT
  8
JOINT
 10
92.812
 20
8.5
 30
0
  0
POINT
  8
JOINT
 10
92.812
 20
27.5
 30
0
  0
POINT
  8
JOINT
 10
92.812
 20
46.5
 30
0
  0
POINT
  8
JOINT
 10
123.75
 20
0
 30
0
  0
POINT
  8
JOINT
 10
123.75
 20
8.5
 30
0
  0
POINT
  8
JOINT
 10
123.75
 20
27.5
 30
0
  0
POINT
  8
JOINT
 10
123.75
 20
46.5
 30
0
  0
POINT
  8
JOINT
 10
154.688
 20
0
 30
0
  0
POINT
  8
JOINT
 10
154.688
 20
8.5
 30
0
  0
POINT
  8
JOINT
 10
154.688
 20
27.5
 30
0
  0
POINT
  8
JOINT
 10
154.688
 20
46.5
 30
0
  0
POINT
  8
JOINT
 10
185.625
 20
0
 30
0
  0
POINT
  8
JOINT
 10
185.625
 20
8.5
 30
0
  0
POINT
  8
JOINT
 10
185.625
 20
27.5
 30
0
  0
POINT
  8
JOINT
 10
185.625
 20
46.5
 30
0
  0
LINE
  8
MEMBER
 10
0
 20
46.5
 30
24
 11
0
 21
46.5
 31
120.43
  0
LINE
  8
MEMBER
 10
247
 20
8.5
 30
24
 11
247
 21
8.5
 31
112.002
  0
LINE
  8
MEMBER
 10
247
 20
46.5
 30
24
 11
247
 21
46.5
 31
120.43
  0
LINE
  8
MEMBER
 10
0
 20
-11.57
 30
107.55
 11
0
 21
-31.641
 31
103.099
  0
LINE
  8
MEMBER
 10
0
 20
-31.641
 30
103.099
 11
82.333
 21
-31.641
 31
103.099
  0
LINE
  8
MEMBER
 10
247
 20
-31.641
 30
103.099
 11
247
 21
-11.57
 31
107.55
  0
LINE
  8
MEMBER
 10
164.667
 20
-31.641
 30
103.099
 11
247
 21
-31.641
 31
103.099
  0
LINE
  8
MEMBER
 10
0
 20
-31.641
 30
103.099
 11
0
 21
-71.992
 31
94.149
  0
LINE
  8
MEMBER
 10
0
 20
-71.992
 30
94.149
 11
82.333
 21
-71.992
 31
94.149
  0
LINE
  8
MEMBER
 10
164.667
 20
-71.992
 30
94.149
 11
247
 21
-71.992
 31
94.149
  0
LINE
  8
MEMBER
 10
247
 20
-71.992
 30
94.149
 11
247
 21
-31.641
 31
103.099
  0
LINE
  8
MEMBER
 10
247
 20
49.061
 30
120.998
 11
164.667
 21
49.061
 31
120.998
  0
LINE
  8
MEMBER
 10
247
 20
8.5
 30
112.002
 11
164.667
 21
8.5
 31
112.002
  0
LINE
  8
MEMBER
 10
247
 20
8.5
 30
112.002
 11
247
 21
46.5
 31
120.43
  0
LINE
  8
MEMBER
 10
247
 20
46.5
 30
120.43
 11
247
 21
49.061
 31
120.998
  0
LINE
  8
MEMBER
 10
82.333
 20
49.061
 30
120.998
 11
0
 21
49.061
 31
120.998
  0
LINE
  8
MEMBER
 10
0
 20
49.061
 30
120.998
 11
0
 21
46.5
 31
120.43
  0
LINE
  8
MEMBER
 10
0
 20
46.5
 30
120.43
 11
0
 21
8.5
 31
112.002
  0
LINE
  8
MEMBER
 10
82.333
 20
8.5
 30
112.002
 11
0
 21
8.5
 31
112.002
  0
LINE
  8
MEMBER
 10
164.667
 20
8.5
 30
112.002
 11
82.333
 21
8.5
 31
112.002
  0
LINE
  8
MEMBER
 10
164.667
 20
49.061
 30
120.998
 11
82.333
 21
49.061
 31
120.998
  0
LINE
  8
MEMBER
 10
82.333
 20
-31.641
 30
103.099
 11
164.667
 21
-31.641
 31
103.099
  0
LINE
  8
MEMBER
 10
82.333
 20
-71.992
 30
94.149
 11
164.667
 21
-71.992
 31
94.149
  0
LINE
  8
MEMBER
 10
0
 20
8.5
 30
112.002
 11
0
 21
-11.57
 31
107.55
  0
LINE
  8
MEMBER
 10
247
 20
-11.57
 30
107.55
 11
247
 21
8.5
 31
112.002
  0
LINE
  8
MEMBER
 10
0
 20
8.5
 30
24
 11
0
 21
8.5
 31
112.002
  0
3DFACE
  8
PLATE
 10
0
 20
-71.992
 30
94.149
 11
82.333
 21
-71.992
 31
94.149
 12
82.333
 22
-31.641
 32
103.099
 13
0
 23
-31.641
 33
103.099
  0
3DFACE
  8
PLATE
 10
82.333
 20
-71.992
 30
94.149
 11
164.667
 21
-71.992
 31
94.149
 12
164.667
 22
-31.641
 32
103.099
 13
82.333
 23
-31.641
 33
103.099
  0
3DFACE
  8
PLATE
 10
164.667
 20
-71.992
 30
94.149
 11
247
 21
-71.992
 31
94.149
 12
247
 22
-31.641
 32
103.099
 13
164.667
 23
-31.641
 33
103.099
  0
3DFACE
  8
PLATE
 10
82.333
 20
-31.641
 30
103.099
 11
82.333
 21
-11.57
 31
107.55
 12
0
 22
-11.57
 32
107.55
 13
0
 23
-31.641
 33
103.099
  0
3DFACE
  8
PLATE
 10
82.333
 20
-31.641
 30
103.099
 11
164.667
 21
-31.641
 31
103.099
 12
164.667
 22
-11.57
 32
107.55
 13
82.333
 23
-11.57
 33
107.55
  0
3DFACE
  8
PLATE
 10
164.667
 20
-31.641
 30
103.099
 11
247
 21
-31.641
 31
103.099
 12
247
 22
-11.57
 32
107.55
 13
164.667
 23
-11.57
 33
107.55
  0
3DFACE
  8
PLATE
 10
0
 20
-11.57
 30
107.55
 11
82.333
 21
-11.57
 31
107.55
 12
82.333
 22
8.5
 32
112.002
 13
0
 23
8.5
 33
112.002
  0
3DFACE
  8
PLATE
 10
82.333
 20
-11.57
 30
107.55
 11
164.667
 21
-11.57
 31
107.55
 12
164.667
 22
8.5
 32
112.002
 13
82.333
 23
8.5
 33
112.002
  0
3DFACE
  8
PLATE
 10
164.667
 20
-11.57
 30
107.55
 11
247
 21
-11.57
 31
107.55
 12
247
 22
8.5
 32
112.002
 13
164.667
 23
8.5
 33
112.002
  0
3DFACE
  8
PLATE
 10
0
 20
8.5
 30
112.002
 11
82.333
 21
8.5
 31
112.002
 12
82.333
 22
49.061
 32
120.998
 13
0
 23
49.061
 33
120.998
  0
3DFACE
  8
PLATE
 10
82.333
 20
8.5
 30
112.002
 11
164.667
 21
8.5
 31
112.002
 12
164.667
 22
49.061
 32
120.998
 13
82.333
 23
49.061
 33
120.998
  0
3DFACE
  8
PLATE
 10
164.667
 20
8.5
 30
112.002
 11
247
 21
8.5
 31
112.002
 12
247
 22
49.061
 32
120.998
 13
164.667
 23
49.061
 33
120.998
  0
3DFACE
  8
PLATE
 10
0
 20
0
 30
0
 11
0
 21
8.5
 31
0
 12
0
 22
8.5
 32
12
 13
0
 23
0
 33
12
  0
3DFACE
  8
PLATE
 10
0
 20
8.5
 30
0
 11
0
 21
27.5
 31
0
 12
0
 22
27.5
 32
12
 13
0
 23
8.5
 33
12
  0
3DFACE
  8
PLATE
 10
0
 20
46.5
 30
0
 11
0
 21
27.5
 31
0
 12
0
 22
27.5
 32
12
 13
0
 23
46.5
 33
12
  0
3DFACE
  8
PLATE
 10
0
 20
46.5
 30
0
 11
0
 21
46.5
 31
12
 12
0
 22
53
 32
12
 13
0
 23
53
 33
0
  0
3DFACE
  8
PLATE
 10
0
 20
0
 30
12
 11
0
 21
0
 31
24
 12
0
 22
8.5
 32
24
 13
0
 23
8.5
 33
12
  0
3DFACE
  8
PLATE
 10
0
 20
8.5
 30
12
 11
0
 21
27.5
 31
12
 12
0
 22
27.5
 32
24
 13
0
 23
8.5
 33
24
  0
3DFACE
  8
PLATE
 10
247
 20
0
 30
0
 11
247
 21
8.5
 31
0
 12
247
 22
8.5
 32
12
 13
247
 23
0
 33
12
  0
3DFACE
  8
PLATE
 10
247
 20
8.5
 30
0
 11
247
 21
27.5
 31
0
 12
247
 22
27.5
 32
12
 13
247
 23
8.5
 33
12
  0
3DFACE
  8
PLATE
 10
247
 20
27.5
 30
0
 11
247
 21
46.5
 31
0
 12
247
 22
46.5
 32
12
 13
247
 23
27.5
 33
12
  0
3DFACE
  8
PLATE
 10
247
 20
46.5
 30
0
 11
247
 21
53
 31
0
 12
247
 22
53
 32
12
 13
247
 23
46.5
 33
12
  0
3DFACE
  8
PLATE
 10
247
 20
0
 30
12
 11
247
 21
8.5
 31
12
 12
247
 22
8.5
 32
24
 13
247
 23
0
 33
24
  0
3DFACE
  8
PLATE
 10
247
 20
8.5
 30
12
 11
247
 21
27.5
 31
12
 12
247
 22
27.5
 32
24
 13
247
 23
8.5
 33
24
  0
3DFACE
  8
PLATE
 10
247
 20
27.5
 30
12
 11
247
 21
46.5
 31
12
 12
247
 22
46.5
 32
24
 13
247
 23
27.5
 33
24
  0
3DFACE
  8
PLATE
 10
247
 20
46.5
 30
12
 11
247
 21
53
 31
12
 12
247
 22
53
 32
24
 13
247
 23
46.5
 33
24
  0
3DFACE
  8
PLATE
 10
0
 20
46.5
 30
12
 11
0
 21
53
 31
12
 12
-0.084
 22
53
 32
24
 13
0
 23
46.5
 33
24
  0
3DFACE
  8
PLATE
 10
247
 20
53
 30
0
 11
216.562
 21
53
 31
0
 12
216.562
 22
53
 32
12
 13
247
 23
53
 33
12
  0
3DFACE
  8
PLATE
 10
216.562
 20
53
 30
12
 11
247
 21
53
 31
12
 12
247
 22
53
 32
24
 13
216.562
 23
53
 33
24
  0
3DFACE
  8
PLATE
 10
216.562
 20
53
 30
0
 11
185.625
 21
53
 31
0
 12
185.625
 22
53
 32
12
 13
216.562
 23
53
 33
12
  0
3DFACE
  8
PLATE
 10
216.562
 20
53
 30
12
 11
185.625
 21
53
 31
12
 12
185.625
 22
53
 32
24
 13
216.562
 23
53
 33
24
  0
3DFACE
  8
PLATE
 10
185.625
 20
53
 30
12
 11
154.688
 21
53
 31
12
 12
154.688
 22
53
 32
24
 13
185.625
 23
53
 33
24
  0
3DFACE
  8
PLATE
 10
185.625
 20
53
 30
0
 11
154.688
 21
53
 31
0
 12
154.688
 22
53
 32
12
 13
185.625
 23
53
 33
12
  0
3DFACE
  8
PLATE
 10
154.688
 20
53
 30
0
 11
123.75
 21
53
 31
0
 12
123.75
 22
53
 32
12
 13
154.688
 23
53
 33
12
  0
3DFACE
  8
PLATE
 10
154.688
 20
53
 30
12
 11
123.75
 21
53
 31
12
 12
123.75
 22
53
 32
24
 13
154.688
 23
53
 33
24
  0
3DFACE
  8
PLATE
 10
123.75
 20
53
 30
0
 11
92.812
 21
53
 31
0
 12
92.812
 22
53
 32
12
 13
123.75
 23
53
 33
12
  0
3DFACE
  8
PLATE
 10
123.75
 20
53
 30
12
 11
92.812
 21
53
 31
12
 12
92.812
 22
53
 32
24
 13
123.75
 23
53
 33
24
  0
3DFACE
  8
PLATE
 10
92.812
 20
53
 30
0
 11
61.875
 21
53
 31
0
 12
61.875
 22
53
 32
12
 13
92.812
 23
53
 33
12
  0
3DFACE
  8
PLATE
 10
92.812
 20
53
 30
12
 11
61.875
 21
53
 31
12
 12
61.875
 22
53
 32
24
 13
92.812
 23
53
 33
24
  0
3DFACE
  8
PLATE
 10
61.875
 20
53
 30
0
 11
30.938
 21
53
 31
0
 12
30.938
 22
53
 32
12
 13
61.875
 23
53
 33
12
  0
3DFACE
  8
PLATE
 10
61.875
 20
53
 30
12
 11
30.938
 21
53
 31
12
 12
30.938
 22
53
 32
24
 13
61.875
 23
53
 33
24
  0
3DFACE
  8
PLATE
 10
30.938
 20
53
 30
0
 11
0
 21
53
 31
0
 12
0
 22
53
 32
12
 13
30.938
 23
53
 33
12
  0
3DFACE
  8
PLATE
 10
30.938
 20
53
 30
12
 11
30.938
 21
53
 31
24
 12
0
 22
53
 32
24
 13
0
 23
53
 33
12
  0
3DFACE
  8
PLATE
 10
247
 20
46.5
 30
0
 11
216.562
 21
46.5
 31
0
 12
216.562
 22
53
 32
0
 13
247
 23
53
 33
0
  0
3DFACE
  8
PLATE
 10
247
 20
27.5
 30
0
 11
216.562
 21
27.5
 31
0
 12
216.562
 22
46.5
 32
0
 13
247
 23
46.5
 33
0
  0
3DFACE
  8
PLATE
 10
216.562
 20
8.5
 30
0
 11
216.562
 21
27.5
 31
0
 12
247
 22
27.5
 32
0
 13
247
 23
8.5
 33
0
  0
3DFACE
  8
PLATE
 10
216.562
 20
0
 30
0
 11
216.562
 21
8.5
 31
0
 12
247
 22
8.5
 32
0
 13
247
 23
0
 33
0
  0
3DFACE
  8
PLATE
 10
185.625
 20
53
 30
0
 11
216.562
 21
53
 31
0
 12
216.562
 22
46.5
 32
0
 13
185.625
 23
46.5
 33
0
  0
3DFACE
  8
PLATE
 10
185.625
 20
46.5
 30
0
 11
185.625
 21
27.5
 31
0
 12
216.562
 22
27.5
 32
0
 13
216.562
 23
46.5
 33
0
  0
3DFACE
  8
PLATE
 10
185.625
 20
8.5
 30
0
 11
185.625
 21
27.5
 31
0
 12
216.562
 22
27.5
 32
0
 13
216.562
 23
8.5
 33
0
  0
3DFACE
  8
PLATE
 10
185.625
 20
0
 30
0
 11
185.625
 21
8.5
 31
0
 12
216.562
 22
8.5
 32
0
 13
216.562
 23
0
 33
0
  0
3DFACE
  8
PLATE
 10
154.688
 20
46.5
 30
0
 11
185.625
 21
46.5
 31
0
 12
185.625
 22
53
 32
0
 13
154.688
 23
53
 33
0
  0
3DFACE
  8
PLATE
 10
154.688
 20
46.5
 30
0
 11
154.688
 21
27.5
 31
0
 12
185.625
 22
27.5
 32
0
 13
185.625
 23
46.5
 33
0
  0
3DFACE
  8
PLATE
 10
154.688
 20
27.5
 30
0
 11
185.625
 21
27.5
 31
0
 12
185.625
 22
8.5
 32
0
 13
154.688
 23
8.5
 33
0
  0
3DFACE
  8
PLATE
 10
154.688
 20
8.5
 30
0
 11
185.625
 21
8.5
 31
0
 12
185.625
 22
0
 32
0
 13
154.688
 23
0
 33
0
  0
3DFACE
  8
PLATE
 10
123.75
 20
53
 30
0
 11
123.75
 21
46.5
 31
0
 12
154.688
 22
46.5
 32
0
 13
154.688
 23
53
 33
0
  0
3DFACE
  8
PLATE
 10
123.75
 20
46.5
 30
0
 11
123.75
 21
27.5
 31
0
 12
154.688
 22
27.5
 32
0
 13
154.688
 23
46.5
 33
0
  0
3DFACE
  8
PLATE
 10
123.75
 20
27.5
 30
0
 11
123.75
 21
8.5
 31
0
 12
154.688
 22
8.5
 32
0
 13
154.688
 23
27.5
 33
0
  0
3DFACE
  8
PLATE
 10
123.75
 20
8.5
 30
0
 11
154.688
 21
8.5
 31
0
 12
154.688
 22
0
 32
0
 13
123.75
 23
0
 33
0
  0
3DFACE
  8
PLATE
 10
92.812
 20
53
 30
0
 11
123.75
 21
53
 31
0
 12
123.75
 22
46.5
 32
0
 13
92.812
 23
46.5
 33
0
  0
3DFACE
  8
PLATE
 10
92.812
 20
46.5
 30
0
 11
123.75
 21
46.5
 31
0
 12
123.75
 22
27.5
 32
0
 13
92.812
 23
27.5
 33
0
  0
3DFACE
  8
PLATE
 10
92.812
 20
27.5
 30
0
 11
123.75
 21
27.5
 31
0
 12
123.75
 22
8.5
 32
0
 13
92.812
 23
8.5
 33
0
  0
3DFACE
  8
PLATE
 10
92.812
 20
8.5
 30
0
 11
123.75
 21
8.5
 31
0
 12
123.75
 22
0
 32
0
 13
92.812
 23
0
 33
0
  0
3DFACE
  8
PLATE
 10
61.875
 20
53
 30
0
 11
92.812
 21
53
 31
0
 12
92.812
 22
46.5
 32
0
 13
61.875
 23
46.5
 33
0
  0
3DFACE
  8
PLATE
 10
61.875
 20
46.5
 30
0
 11
92.812
 21
46.5
 31
0
 12
92.812
 22
27.5
 32
0
 13
61.875
 23
27.5
 33
0
  0
3DFACE
  8
PLATE
 10
61.875
 20
27.5
 30
0
 11
92.812
 21
27.5
 31
0
 12
92.812
 22
8.5
 32
0
 13
61.875
 23
8.5
 33
0
  0
3DFACE
  8
PLATE
 10
61.875
 20
8.5
 30
0
 11
92.812
 21
8.5
 31
0
 12
92.812
 22
0
 32
0
 13
61.875
 23
0
 33
0
  0
3DFACE
  8
PLATE
 10
30.938
 20
53
 30
0
 11
61.875
 21
53
 31
0
 12
61.875
 22
46.5
 32
0
 13
30.938
 23
46.5
 33
0
  0
3DFACE
  8
PLATE
 10
30.938
 20
46.5
 30
0
 11
61.875
 21
46.5
 31
0
 12
61.875
 22
27.5
 32
0
 13
30.938
 23
27.5
 33
0
  0
3DFACE
  8
PLATE
 10
30.938
 20
27.5
 30
0
 11
61.875
 21
27.5
 31
0
 12
61.875
 22
8.5
 32
0
 13
30.938
 23
8.5
 33
0
  0
3DFACE
  8
PLATE
 10
30.938
 20
8.5
 30
0
 11
61.875
 21
8.5
 31
0
 12
61.875
 22
0
 32
0
 13
30.938
 23
0
 33
0
  0
3DFACE
  8
PLATE
 10
30.938
 20
46.5
 30
0
 11
0
 21
46.5
 31
0
 12
0
 22
53
 32
0
 13
30.938
 23
53
 33
0
  0
3DFACE
  8
PLATE
 10
30.938
 20
27.5
 30
0
 11
0
 21
27.5
 31
0
 12
0
 22
46.5
 32
0
 13
30.938
 23
46.5
 33
0
  0
3DFACE
  8
PLATE
 10
30.938
 20
8.5
 30
0
 11
0
 21
8.5
 31
0
 12
0
 22
27.5
 32
0
 13
30.938
 23
27.5
 33
0
  0
3DFACE
  8
PLATE
 10
30.938
 20
0
 30
0
 11
0
 21
0
 31
0
 12
0
 22
8.5
 32
0
 13
30.938
 23
8.5
 33
0
  0
3DFACE
  8
PLATE
 10
0
 20
46.5
 30
12
 11
0
 21
27.5
 31
12
 12
0
 22
27.5
 32
24
 13
0
 23
46.5
 33
24
  0
ENDSEC
  0
EOF
